<svg id="Airplay" xmlns="http://www.w3.org/2000/svg" width="19" height="17" viewBox="0 0 19 17">
  <path id="Airplay-2" data-name="Airplay" d="M2.5,17l7-8,7,8ZM15,13l-1.5-1.5h3a1,1,0,0,0,1-1v-8a1,1,0,0,0-1-1H2.5a1,1,0,0,0-1,1v8a1,1,0,0,0,1,1h3L4,13H2a2,2,0,0,1-2-2V2A2,2,0,0,1,2,0H17a2,2,0,0,1,2,2v9a2,2,0,0,1-2,2Z" fill="rgba(255,255,255,0.35)"/>
  <path id="Airplay-3" data-name="Airplay" d="M2.5,17l7-8,7,8ZM15,13l-1.5-1.5h3a1,1,0,0,0,1-1v-8a1,1,0,0,0-1-1H2.5a1,1,0,0,0-1,1v8a1,1,0,0,0,1,1h3L4,13H2a2,2,0,0,1-2-2V2A2,2,0,0,1,2,0H17a2,2,0,0,1,2,2v9a2,2,0,0,1-2,2Z" fill="rgba(255,255,255,0.6)" style="mix-blend-mode: overlay;isolation: isolate"/>
</svg>
