<?xml version="1.0" encoding="utf-8"?>
<!-- Generator: Adobe Illustrator 22.0.0, SVG Export Plug-In . SVG Version: 6.00 Build 0)  -->
<svg version="1.1" id="Layer_1" xmlns="http://www.w3.org/2000/svg" xmlns:xlink="http://www.w3.org/1999/xlink" x="0px" y="0px"
	 viewBox="0 0 500 500" style="enable-background:new 0 0 500 500;" xml:space="preserve">
<style type="text/css">
	.st0{fill:#FFFFFF;}
</style>
<path class="st0" d="M262.6,91.8l-114.4,98.9H40V318h106.6l116,100.3V91.8z"/>
<g>
	<path class="st0" d="M410.7,429.8c-2.7,0-5.5-0.9-7.8-2.8c-5.4-4.3-6.2-12.2-1.9-17.6c71.8-89.3,71.8-219,0-308.3
		c-4.3-5.4-3.5-13.3,1.9-17.6c5.4-4.3,13.3-3.5,17.6,1.9c38.5,48,59.8,108.3,59.8,169.8c0,61.5-21.2,121.9-59.8,169.8
		C417.9,428.2,414.3,429.8,410.7,429.8z M367.3,386.5c-2.6,0-5.2-0.8-7.4-2.4c-5.6-4.1-6.7-11.9-2.6-17.5c49-66.5,49-156,0-222.5
		c-4.1-5.6-2.9-13.4,2.6-17.5s13.4-2.9,17.5,2.6c27.1,36.8,41.4,80.4,41.4,126.1c0,45.7-14.3,89.3-41.4,126.1
		C374.9,384.7,371.2,386.5,367.3,386.5z M320,339.2c-2.4,0-4.7-0.7-6.8-2.1c-5.8-3.8-7.4-11.5-3.6-17.3c25.7-39.2,25.7-89.8,0-128.9
		c-3.8-5.8-2.2-13.5,3.6-17.3c5.8-3.8,13.5-2.2,17.3,3.6c31.2,47.5,31.2,108.9,0,156.4C328,337.2,324.1,339.2,320,339.2z"/>
</g>
</svg>
