<?xml version="1.0" encoding="utf-8"?>
<!-- Generator: Adobe Illustrator 22.0.0, SVG Export Plug-In . SVG Version: 6.00 Build 0)  -->
<svg version="1.1" id="Layer_1" xmlns="http://www.w3.org/2000/svg" xmlns:xlink="http://www.w3.org/1999/xlink" x="0px" y="0px"
	 viewBox="0 0 500 500" style="enable-background:new 0 0 500 500;" xml:space="preserve">
<style type="text/css">
	.st0{fill:#FFFFFF;}
</style>
<path class="st0" d="M260,93.3l-113.3,100H40V320h106.7L260,420V93.3z"/>
<path class="st0" d="M460,345.8c-3.6,0-7.1-1.5-9.6-4.5l-57.1-68.5l-57.1,68.5c-4.4,5.3-12.3,6-17.6,1.6c-5.3-4.4-6-12.3-1.6-17.6
	l60-72l-60-72c-4.4-5.3-3.7-13.2,1.6-17.6c5.3-4.4,13.2-3.7,17.6,1.6l57.1,68.5l57.1-68.5c4.4-5.3,12.3-6,17.6-1.6
	c5.3,4.4,6,12.3,1.6,17.6l-60,72l60,72c4.4,5.3,3.7,13.2-1.6,17.6C465.7,344.9,462.8,345.8,460,345.8z"/>
</svg>
